<?xml version="1.0" encoding="UTF-8" standalone="no"?> <svg class="svg-icon" style="width: 1em; height: 1em;vertical-align: middle;fill: currentColor;overflow: hidden;" viewBox="0 0 1024 1024" version="1.1" xmlns="http://www.w3.org/2000/svg"><path d="M768 447.146667H283.818667c-132.266667 0-161.621333 0-161.621334-102.4S122.368 51.2 518.826667 51.2s396.629333 175.616 396.629333 293.205333S886.101333 447.146667 768 447.146667z" fill="#F2D09F" /><path d="M828.245333 464.896h-544.426666c-130.048 0-178.688 0-178.688-119.466667C105.301333 243.712 105.301333 34.133333 518.826667 34.133333s413.696 194.218667 413.696 310.272c0 47.274667-4.096 80.554667-24.064 100.352s-43.52 20.138667-80.213334 20.138667zM518.826667 68.266667C139.434667 68.266667 139.434667 241.152 139.434667 344.405333c0 85.333333 10.922667 85.333333 144.554666 85.333334h519.338667c41.642667 0 69.290667 1.024 80.554667-10.069334s13.994667-32.256 13.994666-75.946666C898.389333 227.84 898.389333 68.266667 518.826667 68.266667z" fill="#BE1E2D" /><path d="M298.496 185.685333A31.744 31.744 0 1 1 330.24 153.6a31.744 31.744 0 0 1-31.744 32.085333z m0-34.133333a2.389333 2.389333 0 0 0-2.389333 2.389333c0 2.56 4.778667 2.56 4.778666 0a2.389333 2.389333 0 0 0-2.389333-2.389333zM445.44 185.685333A31.744 31.744 0 1 1 477.866667 153.6a31.744 31.744 0 0 1-32.426667 32.085333z m0-34.133333A2.389333 2.389333 0 0 0 443.733333 153.6c0 2.730667 4.778667 2.56 4.778667 0a2.389333 2.389333 0 0 0-3.072-2.048zM592.384 185.685333A31.744 31.744 0 1 1 624.128 153.6a31.744 31.744 0 0 1-31.744 32.085333z m0-34.133333a2.389333 2.389333 0 0 0-2.389333 2.389333c0 2.56 4.778667 2.56 4.778666 0a2.389333 2.389333 0 0 0-2.389333-2.389333zM739.157333 185.685333A31.744 31.744 0 1 1 770.901333 153.6a31.744 31.744 0 0 1-31.744 32.085333z m0-34.133333a2.389333 2.389333 0 0 0-2.389333 2.389333c0 2.56 4.778667 2.730667 4.778667 0a2.389333 2.389333 0 0 0-2.389334-2.389333zM665.6 288.597333A31.744 31.744 0 1 1 697.514667 256 31.744 31.744 0 0 1 665.6 288.597333z m0-34.133333a2.389333 2.389333 0 0 0-2.389333 2.389333c0 2.56 4.778667 2.56 4.778666 0a2.389333 2.389333 0 0 0-2.389333-2.389333zM518.826667 288.597333A31.744 31.744 0 1 1 550.570667 256a31.744 31.744 0 0 1-31.744 32.597333z m0-34.133333a2.389333 2.389333 0 0 0-2.389334 2.389333c0 2.56 4.778667 2.56 4.778667 0a2.389333 2.389333 0 0 0-2.389333-2.389333zM372.053333 288.597333A31.744 31.744 0 1 1 403.797333 256a31.744 31.744 0 0 1-31.744 32.597333z m0-34.133333a2.389333 2.389333 0 0 0-2.389333 2.389333c0 2.56 4.778667 2.56 4.778667 0a2.389333 2.389333 0 0 0-2.389334-2.389333z" fill="#BE1E2D" /><path d="M783.189333 682.666667h-484.693333C166.4 682.666667 136.533333 682.666667 136.533333 786.090667s44.032 204.8 396.629334 204.8 396.629333-87.552 396.629333-204.8S900.778667 682.666667 783.189333 682.666667z" fill="#F2D09F" /><path d="M533.504 1008.298667C169.130667 1008.298667 119.466667 896 119.466667 786.090667c0-119.466667 48.64-119.466667 178.688-119.466667h518.826666c50.176 0 83.456-1.194667 104.96 19.968s24.064 53.077333 24.064 100.352c1.194667 139.946667-66.56 221.354667-412.501333 221.354667zM298.496 699.733333C165.034667 699.733333 153.6 699.733333 153.6 786.090667c0 65.706667 0 187.733333 379.562667 187.733333 350.890667 0 379.562667-85.333333 379.562666-187.733333 0-43.690667-4.096-66.389333-13.994666-75.946667S860.330667 699.733333 819.2 699.733333h-35.328z" fill="#BE1E2D" /><path d="M930.133333 491.861333a44.032 44.032 0 0 1-44.032 44.032H166.4a44.032 44.032 0 0 1-44.032-44.032 44.032 44.032 0 0 1 44.032-44.032h719.701333a44.032 44.032 0 0 1 44.032 44.032z" fill="#F15A29" /><path d="M886.101333 552.96H166.4a61.098667 61.098667 0 0 1 0-122.197333h719.701333a61.098667 61.098667 0 1 1 0 122.197333zM166.4 464.896a26.965333 26.965333 0 0 0 0 53.930667h719.701333a26.965333 26.965333 0 0 0 0-53.930667z" fill="#BE1E2D" /><path d="M829.098667 655.701333a79.36 79.36 0 0 1-63.488-35.328c-12.8-15.018667-20.992-23.381333-37.546667-23.381333s-24.746667 8.533333-37.546667 23.381333a74.581333 74.581333 0 0 1-126.805333 0c-12.8-15.018667-20.992-23.381333-37.546667-23.381333s-24.746667 8.533333-37.546666 23.381333a79.189333 79.189333 0 0 1-63.488 35.328 79.189333 79.189333 0 0 1-63.488-35.328C348.842667 605.525333 341.333333 597.333333 324.266667 597.333333s-24.746667 8.533333-37.546667 23.381334a79.189333 79.189333 0 0 1-63.488 35.328 79.189333 79.189333 0 0 1-63.488-35.328C146.944 605.525333 138.922667 597.333333 122.368 597.333333a17.066667 17.066667 0 0 1 0-34.133333 79.189333 79.189333 0 0 1 63.317333 35.328c12.8 15.018667 20.992 23.381333 37.546667 23.381333s24.746667-8.533333 37.546667-23.381333A79.189333 79.189333 0 0 1 324.266667 563.2a79.189333 79.189333 0 0 1 63.317333 35.328c12.8 15.018667 20.992 23.381333 37.546667 23.381333s24.746667-8.533333 37.546666-23.381333a74.581333 74.581333 0 0 1 126.805334 0c12.8 15.018667 20.992 23.381333 37.546666 23.381333s24.746667-8.533333 37.546667-23.381333a74.581333 74.581333 0 0 1 126.805333 0c12.8 15.018667 20.992 23.381333 37.546667 23.381333S853.333333 613.205333 866.645333 597.333333a79.36 79.36 0 0 1 63.488-34.133333 17.066667 17.066667 0 0 1 0 34.133333c-17.066667 0-24.746667 8.533333-37.546666 23.381334a79.36 79.36 0 0 1-63.488 34.986666z" fill="#39B54A" /><path d="M180.394667 697.514667a81.237333 81.237333 0 0 1 46.933333 14.677333 86.869333 86.869333 0 0 1 20.992 20.309333l95.744 109.056a11.264 11.264 0 0 0 8.362667 2.901334 11.605333 11.605333 0 0 0 8.021333-2.56l89.941333-109.056a87.210667 87.210667 0 0 1 21.162667-20.48 81.237333 81.237333 0 0 1 46.933333-14.677334h37.546667a81.408 81.408 0 0 1 46.933333 14.677334 86.869333 86.869333 0 0 1 20.992 20.309333l95.744 109.056a11.264 11.264 0 0 0 8.362667 2.901333 11.605333 11.605333 0 0 0 8.021333-2.56l89.941334-109.056a87.210667 87.210667 0 0 1 21.162666-20.48 81.237333 81.237333 0 0 1 46.933334-14.677333H904.533333c-10.410667-14.677333-29.013333-14.677333-60.074666-14.677333H298.496c-72.704 0-109.738667 0-128.341333 14.677333z" fill="#FBB040" /><path d="M727.893333 861.354667a27.818667 27.818667 0 0 1-21.333333-8.874667l-95.573333-108.714667-1.194667-1.365333a70.314667 70.314667 0 0 0-17.066667-16.213333 64.341333 64.341333 0 0 0-37.205333-11.605334h-37.546667a64.341333 64.341333 0 0 0-37.205333 11.605334 70.144 70.144 0 0 0-17.066667 17.066666L373.589333 853.333333a31.402667 31.402667 0 0 1-42.666666 0l-95.402667-109.568-1.194667-1.536a69.461333 69.461333 0 0 0-17.066666-16.042666 64 64 0 0 0-37.205334-11.605334H170.666667a17.066667 17.066667 0 0 1-10.410667-30.549333C183.296 665.6 221.866667 665.6 298.496 665.6h545.109333c32.597333 0 58.197333 0 73.898667 21.845333a17.066667 17.066667 0 0 1-12.970667 27.136h-9.898666a64.170667 64.170667 0 0 0-37.205334 11.605334 70.826667 70.826667 0 0 0-17.066666 17.066666L749.056 853.333333a27.477333 27.477333 0 0 1-21.162667 8.021334z m4.096-31.573334z m-375.466666 0z m280.746666-107.861333l90.453334 102.4 85.333333-102.4a100.522667 100.522667 0 0 1 21.845333-22.186667H614.4a104.277333 104.277333 0 0 1 22.869333 22.186667z m-375.466666 0l90.453333 102.4 85.333333-102.4a100.864 100.864 0 0 1 21.845334-22.186667H240.128a103.253333 103.253333 0 0 1 21.674667 22.186667z" fill="#BE1E2D" /></svg>